<?xml version="1.0" encoding="UTF-8"?>
<svg id="Layer_1" data-name="Layer 1" xmlns="http://www.w3.org/2000/svg" viewBox="0 0 2000 2000">
  <defs>
    <style>
      .cls-1 {
        font-family: Poppins-Regular, Poppins;
        font-size: 60px;
      }

      .cls-2 {
        fill: #fbbc39;
      }

      .cls-3 {
        fill: #1c2136;
      }
    </style>
  </defs>
  <rect class="cls-2" x="629.32" y="1038.43" width="741.35" height="158.71"/>
  <text class="cls-1" transform="translate(745.06 1144.43)"><tspan x="0" y="0">make IT happen!!</tspan></text>
  <g>
    <path class="cls-3" d="M885.11,803.84h0c0,17.34-14.06,31.39-31.39,31.39h-31.06v164.74c0,21.25-17.23,38.48-38.48,38.48h0v-203.22h-62.79c0-17.34,14.06-31.39,31.39-31.39h132.33Z"/>
    <path class="cls-3" d="M925.96,802.86c-4.73-4.73-7.09-10.58-7.09-17.55s2.36-12.83,7.09-17.55c4.73-4.73,10.58-7.09,17.55-7.09s12.49,2.36,17.22,7.09c4.73,4.73,7.09,10.58,7.09,17.55s-2.36,12.83-7.09,17.55c-4.73,4.73-10.46,7.09-17.22,7.09s-12.83-2.36-17.55-7.09Zm36.46,32.09v155.65c0,26.43-17.23,47.86-38.48,47.86h0v-155.65c0-26.43,17.23-47.86,38.48-47.86h0Zm-293.53-25c-6.75,0-12.49-2.36-17.22-7.09-4.73-4.73-7.09-10.58-7.09-17.55s2.36-12.83,7.09-17.55c4.73-4.73,10.46-7.09,17.22-7.09,6.98,0,12.83,2.36,17.55,7.09,4.73,4.73,7.09,10.58,7.09,17.55s-2.36,12.83-7.09,17.55c-4.73,4.73-10.58,7.09-17.55,7.09Zm-18.9,25c21.25,0,38.48,21.43,38.48,47.86v155.65h0c-21.25,0-38.48-21.43-38.48-47.86v-155.65h0Z"/>
    <path class="cls-3" d="M1151.13,803.84h0c0,17.34-14.06,31.39-31.39,31.39h-68.19v69.2h77.64c0,17.34-14.06,31.4-31.4,31.4h-46.25v64.14c0,21.25-17.23,38.48-38.48,38.48h0v-234.62h138.07Z"/>
    <path class="cls-3" d="M1370.68,803.84l-77.64,149.55v85.07h0c-21.25,0-38.49-17.23-38.49-38.49v-46.59s-77.98-149.55-77.98-149.55h0c26.17,0,50,15.1,61.18,38.77l36.05,76.35,36.19-76.65c11.09-23.48,34.73-38.46,60.69-38.46h0Z"/>
    <path class="cls-2" d="M1256.24,796.75c-4.73-4.73-7.09-10.58-7.09-17.55s2.36-12.83,7.09-17.55c4.73-4.73,10.58-7.09,17.55-7.09s12.49,2.36,17.22,7.09c4.73,4.73,7.09,10.58,7.09,17.55s-2.36,12.83-7.09,17.55c-4.73,4.73-10.47,7.09-17.22,7.09s-12.83-2.36-17.55-7.09Z"/>
  </g>
</svg>