<?xml version="1.0" encoding="utf-8"?>
<!-- Generator: Adobe Illustrator 24.3.0, SVG Export Plug-In . SVG Version: 6.00 Build 0)  -->
<svg version="1.1" id="Layer_1" xmlns="http://www.w3.org/2000/svg" xmlns:xlink="http://www.w3.org/1999/xlink" x="0px" y="0px"
	 viewBox="0 0 2000 2000" style="enable-background:new 0 0 2000 2000;" xml:space="preserve">
<style type="text/css">
	.st0{fill:#FBBC39;}
	.st1{font-family:'Poppins-Regular';}
	.st2{font-size:60px;}
	.st3{fill:#1C2136;}
</style>
<g>
	<rect x="629.3" y="1038.4" class="st0" width="741.3" height="158.7"/>
	<text transform="matrix(1 0 0 1 745.06 1144.4301)" class="st1 st2">make IT happen!!</text>
	<g>
		<path class="st3" d="M885.1,803.8L885.1,803.8c0,17.3-14.1,31.4-31.4,31.4h-31.1V1000c0,21.2-17.2,38.5-38.5,38.5l0,0V835.2h-62.8
			c0-17.3,14.1-31.4,31.4-31.4L885.1,803.8L885.1,803.8z"/>
		<path class="st3" d="M926,802.9c-4.7-4.7-7.1-10.6-7.1-17.5s2.4-12.8,7.1-17.5c4.7-4.7,10.6-7.1,17.5-7.1s12.5,2.4,17.2,7.1
			c4.7,4.7,7.1,10.6,7.1,17.5s-2.4,12.8-7.1,17.5c-4.7,4.7-10.5,7.1-17.2,7.1S930.7,807.6,926,802.9z M962.4,835v155.6
			c0,26.4-17.2,47.9-38.5,47.9l0,0V882.8C923.9,856.4,941.2,834.9,962.4,835L962.4,835L962.4,835z M668.9,810
			c-6.8,0-12.5-2.4-17.2-7.1c-4.7-4.7-7.1-10.6-7.1-17.5s2.4-12.8,7.1-17.5c4.7-4.7,10.5-7.1,17.2-7.1c7,0,12.8,2.4,17.5,7.1
			c4.7,4.7,7.1,10.6,7.1,17.5s-2.4,12.8-7.1,17.5C681.7,807.6,675.9,810,668.9,810z M650,835c21.2,0,38.5,21.4,38.5,47.9v155.6l0,0
			c-21.2,0-38.5-21.4-38.5-47.9V835L650,835L650,835z"/>
		<path class="st3" d="M1151.1,803.8L1151.1,803.8c0,17.3-14.1,31.4-31.4,31.4h-68.2v69.2h77.6c0,17.3-14.1,31.4-31.4,31.4h-46.2
			v64.1c0,21.2-17.2,38.5-38.5,38.5l0,0V803.8L1151.1,803.8L1151.1,803.8z"/>
		<path class="st3" d="M1370.7,803.8L1293,953.4v85.1l0,0c-21.2,0-38.5-17.2-38.5-38.5v-46.6l-78-149.5l0,0
			c26.2,0,50,15.1,61.2,38.8l36.1,76.3l36.2-76.7C1321.1,818.8,1344.7,803.8,1370.7,803.8L1370.7,803.8L1370.7,803.8z"/>
		<path class="st0" d="M1256.2,796.8c-4.7-4.7-7.1-10.6-7.1-17.5s2.4-12.8,7.1-17.5c4.7-4.7,10.6-7.1,17.6-7.1s12.5,2.4,17.2,7.1
			c4.7,4.7,7.1,10.6,7.1,17.5s-2.4,12.8-7.1,17.5c-4.7,4.7-10.5,7.1-17.2,7.1S1261,801.5,1256.2,796.8z"/>
	</g>
</g>
</svg>
